<svg width="12" height="27" viewBox="0 0 12 27" fill="none" xmlns="http://www.w3.org/2000/svg">
<path d="M0.0480843 20.2969C0.141834 20.099 0.292876 20 0.501209 20H4.00121L4.00121 0.5C4.00121 0.354167 4.04808 0.234375 4.14183 0.140625C4.23558 0.046875 4.35538 0 4.50121 0H7.50121C7.64704 0 7.76683 0.046875 7.86058 0.140625C7.95433 0.234375 8.00121 0.354167 8.00121 0.5L8.00121 20L11.5012 20C11.72 20 11.871 20.099 11.9543 20.2969C12.0377 20.4948 12.0116 20.6771 11.8762 20.8438L6.40746 26.8437C6.30329 26.9479 6.1835 27 6.04808 27C5.90225 27 5.77725 26.9479 5.67308 26.8437L0.126209 20.8437C-0.00920741 20.6771 -0.0352491 20.4948 0.0480843 20.2969Z" fill="#47002D"/>
</svg>
